# xmcd CD database file
#
# Track frame offsets:
#	150
#	4375
#	47714
#	73905
#	107618
#	123187
#	165506
#	216081
#	267726
#
# Disc length: 4078 seconds
#
# Revision: 0
# Processed by: cddbd v1.5.2PL0 Copyright (c) Steve Scherf et al.
# Submitted via: CDex 1.70beta2
#
DISCID=810fec09
DTITLE=Josh Roseman - Treats for the Night Walker
DYEAR=2002
DGENRE=Jazz
TTITLE0=Organ Invocation
TTITLE1=Sedate Remix
TTITLE2=LDSN 2.0
TTITLE3=Treats for the Night walker
TTITLE4=Are You There
TTITLE5=Long Day, Short Night
TTITLE6=Meera
TTITLE7=Prospect
TTITLE8=Regression
EXTD=YEAR: 2002
EXTT0=
EXTT1=
EXTT2=
EXTT3=
EXTT4=
EXTT5=
EXTT6=
EXTT7=
EXTT8=
PLAYORDER=
